<?xml version="1.0" encoding="UTF-8" standalone="no"?>
<!-- Created with Inkscape (http://www.inkscape.org/) -->

<svg
   xmlns:dc="http://purl.org/dc/elements/1.1/"
   xmlns:cc="http://creativecommons.org/ns#"
   xmlns:rdf="http://www.w3.org/1999/02/22-rdf-syntax-ns#"
   xmlns:svg="http://www.w3.org/2000/svg"
   xmlns="http://www.w3.org/2000/svg"
   xmlns:sodipodi="http://sodipodi.sourceforge.net/DTD/sodipodi-0.dtd"
   xmlns:inkscape="http://www.inkscape.org/namespaces/inkscape"
   width="750"
   height="500"
   id="svg2"
   version="1.1"
   inkscape:version="0.48.2 r9819"
   sodipodi:docname="title.svg"
   inkscape:export-filename="/Users/bobylito/Dropbox/source.sync/loop/games/10sDS/title.png"
   inkscape:export-xdpi="90"
   inkscape:export-ydpi="90">
  <defs
     id="defs4" />
  <sodipodi:namedview
     id="base"
     pagecolor="#000000"
     bordercolor="#666666"
     borderopacity="1.0"
     inkscape:pageopacity="1"
     inkscape:pageshadow="2"
     inkscape:zoom="1.4"
     inkscape:cx="221.18692"
     inkscape:cy="242.53681"
     inkscape:document-units="px"
     inkscape:current-layer="layer1"
     showgrid="false"
     inkscape:window-width="1147"
     inkscape:window-height="716"
     inkscape:window-x="1280"
     inkscape:window-y="98"
     inkscape:window-maximized="0" />
  <metadata
     id="metadata7">
    <rdf:RDF>
      <cc:Work
         rdf:about="">
        <dc:format>image/svg+xml</dc:format>
        <dc:type
           rdf:resource="http://purl.org/dc/dcmitype/StillImage" />
        <dc:title></dc:title>
      </cc:Work>
    </rdf:RDF>
  </metadata>
  <g
     inkscape:label="Layer 1"
     inkscape:groupmode="layer"
     id="layer1"
     transform="translate(0,-552.36218)">
    <text
       xml:space="preserve"
       style="font-size:40px;font-style:normal;font-weight:normal;line-height:125%;letter-spacing:0px;word-spacing:0px;fill:#ffffff;fill-opacity:1;stroke:none;font-family:Sans"
       x="135.36043"
       y="745.27582"
       id="text2985"
       sodipodi:linespacing="125%"><tspan
         sodipodi:role="line"
         x="135.36043"
         y="745.27582"
         id="tspan2989"
         style="-inkscape-font-specification:Lao MN Bold;font-family:Lao MN;font-weight:bold;font-style:normal;font-stretch:normal;font-variant:normal;font-size:40px;text-anchor:start;text-align:start;writing-mode:lr;line-height:125%;fill:#ffffff;fill-opacity:1">Speed of love</tspan></text>
    <path
       style="fill:#ff2828;fill-opacity:0.15555556"
       d="m 378.57205,756.24298 c -16.41668,0 -40.90625,14.82145 -40.90625,40.90625 0,26.0848 63.375,72.71875 63.375,72.71875 0,0 71.61354,-47.90379 71.96875,-72.71875 0.35521,-24.81496 -24.49384,-40.90625 -40.90625,-40.90625 -16.41241,0 -26.54609,8.26059 -26.75,13.96875 -0.44901,-5.59774 -10.36458,-13.96875 -26.78125,-13.96875 z"
       id="path2997"
       inkscape:connector-curvature="0"
       sodipodi:nodetypes="zzczzcz" />
    <path
       sodipodi:nodetypes="zzczzcz"
       inkscape:connector-curvature="0"
       id="path3798"
       d="m 378.57205,756.24298 c -16.41668,0 -40.90625,14.82145 -40.90625,40.90625 0,26.0848 63.375,72.71875 63.375,72.71875 0,0 71.61354,-47.90379 71.96875,-72.71875 0.35521,-24.81496 -24.49384,-40.90625 -40.90625,-40.90625 -16.41241,0 -26.54609,8.26059 -26.75,13.96875 -0.44901,-5.59774 -10.36458,-13.96875 -26.78125,-13.96875 z"
       style="fill:#ff2828;fill-opacity:0.25333333" />
    <path
       style="fill:#ff2828;fill-opacity:0.25777778"
       d="m 388.21491,754.10012 c -16.41668,0 -40.90625,14.82145 -40.90625,40.90625 0,26.0848 63.375,72.71875 63.375,72.71875 0,0 71.61354,-47.90379 71.96875,-72.71875 0.35521,-24.81496 -24.49384,-40.90625 -40.90625,-40.90625 -16.41241,0 -26.54609,8.26059 -26.75,13.96875 -0.44901,-5.59774 -10.36458,-13.96875 -26.78125,-13.96875 z"
       id="path3800"
       inkscape:connector-curvature="0"
       sodipodi:nodetypes="zzczzcz" />
    <path
       style="fill:#ff2828;fill-opacity:1"
       d="m 406.21562,749.08961 c -16.41668,0 -40.90625,14.82145 -40.90625,40.90625 0,26.0848 63.375,72.71875 63.375,72.71875 0,0 71.61354,-47.90379 71.96875,-72.71875 0.35521,-24.81496 -24.49384,-40.90625 -40.90625,-40.90625 -16.41241,0 -26.54609,8.26059 -26.75,13.96875 -0.44901,-5.59774 -10.36458,-13.96875 -26.78125,-13.96875 z"
       id="path3802"
       inkscape:connector-curvature="0"
       sodipodi:nodetypes="zzczzcz" />
  </g>
</svg>
